HIERARCHY
ROOT hip
{
	OFFSET 0.000000 0.000000 0.000000 
	CHANNELS 6 Xposition Yposition Zposition Xrotation Zrotation Yrotation
	JOINT abdomen
	{
		OFFSET 0.000000 3.402643 0.000000 
		CHANNELS 3 Xrotation Zrotation Yrotation
		JOINT chest
		{
			OFFSET 0.000000 8.438565 -0.680529 
			CHANNELS 3 Xrotation Zrotation Yrotation
			JOINT neck
			{
				OFFSET 0.000000 10.207942 -0.272212 
				CHANNELS 3 Xrotation Zrotation Yrotation
				JOINT head
				{
					OFFSET 0.000000 3.130431 0.000000 
					CHANNELS 3 Xrotation Zrotation Yrotation
					End Site
					{
						OFFSET 0.000000 3.130435 0.000000 
					}
				}
			}
			JOINT lCollar
			{
				OFFSET 3.470700 6.669187 -0.816635 
				CHANNELS 3 Yrotation Zrotation Xrotation
				JOINT lShldr
				{
					OFFSET 3.198488 0.000000 0.000000 
					CHANNELS 3 Zrotation Yrotation Xrotation
					JOINT lForeArm
					{
						OFFSET 10.139888 0.000000 0.000000 
						CHANNELS 3 Yrotation Zrotation Xrotation
						JOINT lHand
						{
							OFFSET 8.370511 0.000000 0.000000 
							CHANNELS 3 Zrotation Yrotation Xrotation
							End Site
							{
								OFFSET 4.083176 0.000000 0.000000 
							}
						}
					}
				}
			}
			JOINT rCollar
			{
				OFFSET -3.470700 6.669187 -0.816635 
				CHANNELS 3 Yrotation Zrotation Xrotation
				JOINT rShldr
				{
					OFFSET -3.198488 0.000000 0.000000 
					CHANNELS 3 Zrotation Yrotation Xrotation
					JOINT rForeArm
					{
						OFFSET -10.139888 0.000000 0.000000 
						CHANNELS 3 Yrotation Zrotation Xrotation
						JOINT rHand
						{
							OFFSET -8.370511 0.000000 0.000000 
							CHANNELS 3 Zrotation Yrotation Xrotation
							End Site
							{
								OFFSET -4.083176 0.000000 0.000000 
							}
						}
					}
				}
			}
		}
	}
	JOINT lThigh
	{
		OFFSET 5.308129 -1.633274 1.361059 
		CHANNELS 3 Xrotation Zrotation Yrotation
		JOINT lShin
		{
			OFFSET -2.041588 -20.007561 0.000000 
			CHANNELS 3 Xrotation Zrotation Yrotation
			JOINT lFoot
			{
				OFFSET 0.000000 -19.190928 -1.224953 
				CHANNELS 3 Xrotation Yrotation Zrotation
				End Site
				{
					OFFSET 0.000000 -2.449906 4.627600 
				}
			}
		}
	}
	JOINT rThigh
	{
		OFFSET -5.308129 -1.633274 1.361059 
		CHANNELS 3 Xrotation Zrotation Yrotation
		JOINT rShin
		{
			OFFSET 2.041588 -20.007561 0.000000 
			CHANNELS 3 Xrotation Zrotation Yrotation
			JOINT rFoot
			{
				OFFSET 0.000000 -19.190928 -1.224953 
				CHANNELS 3 Xrotation Yrotation Zrotation
				End Site
				{
					OFFSET 0.000000 -2.449906 4.627600 
				}
			}
		}
	}
}
MOTION
Frames: 16
Frame Time: 0.016667
14.871861 42.093178 61.085037 4.266702 14.912083 111.529999 -12.052958 -2.248420 -8.835067 0.000000 0.000000 0.000000 -3.440695 -9.469092 -51.812454 10.441969 16.174923 4.873007 14.558485 13.811928 4.802373 -78.626984 -28.695250 -8.076530 -9.155260 3.013509 18.114166 -11.003550 -6.809306 -0.122502 -14.303767 -20.761492 8.052576 65.601250 34.710770 5.513638 40.440113 -3.036673 57.421566 16.604307 8.245193 0.514135 7.195852 13.580705 -0.680781 39.992455 -1.339247 -6.313846 17.403507 1.309861 -22.307615 6.725652 -4.451657 -15.243359 31.620077 2.399735 13.216228 -6.097142 5.115153 -2.048397 
15.158971 42.025372 61.597248 2.610898 14.908430 106.850693 -13.432775 -1.022564 -8.946839 0.000000 0.000000 0.000000 -4.297723 -9.676210 -51.876774 6.720600 17.303780 5.280952 14.380367 15.006994 3.753015 -76.590881 -27.393251 -11.662904 -10.904890 3.139262 18.646852 -11.882833 -7.030593 -0.021190 -14.517009 -21.113445 6.259648 65.064331 33.398617 0.409458 39.158924 -3.264810 54.291080 15.419373 7.950957 0.339337 8.856588 13.230844 0.441712 39.243099 -1.114019 -0.939272 16.323959 1.295023 -21.264042 6.777013 -2.773672 -16.285460 30.897318 2.623248 15.264875 -2.779011 6.068789 -9.061564 
15.446041 41.957645 62.109558 0.968182 14.771616 102.172264 -14.806255 0.192859 -9.091844 0.000000 0.000000 0.000000 -5.165698 -9.885022 -51.934315 2.983477 18.462076 5.613471 14.229673 16.197123 2.709064 -74.670792 -25.987757 -15.146236 -12.657042 3.258251 19.179420 -12.752912 -7.250338 0.085643 -14.744040 -21.455313 4.473742 64.677017 32.053402 -4.597354 37.868671 -3.427092 51.155804 14.235795 7.662663 0.180692 10.505869 12.849741 1.520524 38.524357 -0.845564 4.462969 15.257557 1.217842 -20.217148 6.791697 -1.103611 -17.317993 30.193647 2.867440 17.307236 0.656120 6.630273 -16.146347 
15.710413 41.937962 62.680405 -0.116444 14.588837 97.929955 -15.870798 0.308395 -9.297004 0.000000 0.000000 0.000000 -5.853558 -8.835475 -51.511925 0.881383 19.155050 5.854798 14.023784 17.504654 2.640457 -72.074387 -25.529474 -18.667992 -14.082470 3.267373 19.555719 -11.404356 -6.909549 -0.074592 -15.192722 -20.939453 3.612732 64.768242 32.064606 -9.411967 36.897469 -3.827111 51.287868 8.949507 6.302198 -0.463492 11.994729 13.050768 5.393479 37.984261 -0.503857 6.343232 14.719683 1.088987 -18.642454 7.234287 -0.166145 -18.252552 29.708143 2.979468 18.563955 1.232062 6.721815 -17.233416 
15.974785 41.918297 63.251415 -1.185030 14.334975 93.700172 -16.924862 0.414149 -9.511962 0.000000 0.000000 0.000000 -6.521798 -7.785249 -51.110233 -1.223966 19.857965 6.066107 13.815236 18.807714 2.594241 -69.520844 -24.927982 -22.152645 -15.502643 3.261208 19.945328 -10.045197 -6.568794 -0.238983 -15.637206 -20.416006 2.757260 64.841682 32.079388 -14.235355 35.924423 -4.229511 51.421837 3.683746 4.878261 -0.972830 13.509701 13.150667 9.270213 37.433342 -0.151152 8.224914 14.203699 0.953848 -17.043924 7.639413 0.779551 -19.161192 29.203714 3.107824 19.782328 1.838075 6.834171 -18.310261 
16.237415 41.912521 63.918461 -1.680442 14.295979 89.838425 -17.499052 -0.673309 -9.951970 0.000000 0.000000 0.000000 -7.454102 -5.861328 -49.885792 -1.700202 19.271296 5.867236 14.353292 18.833185 5.138307 -64.765205 -27.349327 -26.837461 -16.773851 3.560190 20.886761 -7.272820 -5.837425 -0.530427 -16.470840 -17.885176 3.884403 63.739845 34.703873 -17.324820 35.013481 -4.561511 50.964874 -2.758755 3.090488 -1.417660 15.151040 13.435061 12.395017 36.480583 0.004938 7.898029 15.853889 0.980812 -17.895250 8.669875 1.249082 -20.748594 28.679613 3.189793 20.755981 2.396258 6.881623 -18.647505 
16.499966 41.906719 64.585640 -2.161733 14.230714 85.984375 -18.066551 -1.757848 -10.385805 0.000000 0.000000 0.000000 -8.326210 -3.926861 -48.698193 -2.179630 18.674032 5.681438 14.892316 18.876606 7.678696 -59.711159 -29.393589 -31.834555 -18.042353 3.849698 21.835297 -4.502469 -5.098012 -0.789620 -17.334087 -15.371777 5.039139 62.427170 37.273224 -20.582382 34.111908 -4.891139 50.490898 -9.177631 1.256248 -1.656434 16.798578 13.629755 15.527105 35.507835 0.166499 7.569952 17.509560 0.994715 -18.760788 9.689375 1.764065 -22.342125 28.166458 3.256886 21.736671 2.973173 6.935705 -18.992268 
16.714636 41.878059 65.330482 -2.151662 14.082462 82.631721 -19.408695 -2.987054 -11.383088 0.000000 0.000000 0.000000 -8.202196 -3.094678 -46.984486 -1.519854 18.259771 5.545564 15.361408 19.016623 8.990447 -55.846298 -29.901178 -36.963371 -19.303822 4.316216 23.380659 -0.147075 -3.909932 -1.129939 -17.741497 -13.857500 5.725627 61.652859 39.407421 -19.499813 33.148163 -5.068936 49.112400 -12.959503 0.167338 -1.711927 17.760433 13.437046 15.468317 34.485207 0.176142 6.690090 20.689692 1.186265 -21.198006 10.629833 1.921585 -24.004908 27.748865 3.293344 22.201208 3.563955 6.938663 -18.772490 
16.929197 41.849274 66.075401 -2.124862 13.937906 79.279884 -20.735085 -4.226294 -12.358550 0.000000 0.000000 0.000000 -8.052536 -2.268818 -45.279934 -0.866787 17.854969 5.409934 15.835162 19.170712 10.304363 -51.928291 -30.110079 -42.138268 -20.571289 4.757367 24.936300 4.201991 -2.699668 -1.382012 -18.160107 -12.352594 6.402315 60.908909 41.549385 -18.414959 32.186028 -5.230314 47.730618 -16.727953 -0.923449 -1.680436 18.708511 13.232043 15.423173 33.453800 0.162044 5.822836 23.881409 1.236017 -23.618937 11.556194 2.106148 -25.653427 27.358652 3.346272 22.671892 4.143665 6.945518 -18.563923 
17.078915 41.739647 66.853500 -1.875103 13.557795 76.262474 -22.404106 -5.638797 -12.787701 0.000000 0.000000 0.000000 -7.520726 -1.962471 -44.574154 -0.784457 17.661915 5.351521 15.780216 19.744911 10.628073 -49.173199 -29.493864 -46.556965 -22.445589 5.101222 27.052347 9.146518 -1.293450 -1.553071 -18.293663 -11.202619 5.627996 61.193085 41.341858 -15.809298 32.145905 -5.589919 49.283802 -15.391374 -0.537802 -1.695435 18.759045 12.783551 13.196754 32.768059 0.007821 4.756585 26.378565 1.362646 -25.478064 12.271166 2.468337 -26.552616 26.861662 3.355575 22.457136 4.087828 6.980475 -18.986683 
17.228487 41.629822 67.631516 -1.600545 13.198849 73.247726 -24.065147 -7.057234 -13.178111 0.000000 0.000000 0.000000 -6.980209 -1.668929 -43.871243 -0.693143 17.488535 5.286819 15.728665 20.320766 10.952025 -46.509243 -28.699215 -50.908131 -24.331129 5.385809 29.174566 14.084113 0.122135 -1.610465 -18.408016 -10.045601 4.871798 61.456104 41.119766 -13.227735 32.122921 -5.949178 50.843697 -14.054327 -0.154496 -1.702911 18.835936 12.343050 10.984505 32.082836 -0.140696 3.713511 28.858761 1.395168 -27.325340 12.977472 2.850503 -27.435177 26.373735 3.374675 22.235195 4.058446 7.035125 -19.403418 
17.293713 41.405983 68.363800 -1.351967 12.869086 70.326462 -24.584654 -7.008925 -13.856141 0.000000 0.000000 0.000000 -7.633328 -3.240057 -43.769672 -2.108772 18.230614 5.545559 15.518579 20.067280 12.277453 -44.233345 -28.020962 -56.404099 -26.873636 4.899530 30.838457 18.958170 1.509239 -1.535971 -16.737696 -10.179999 6.688846 59.974396 42.223961 -16.174297 33.040508 -5.571287 51.223488 -11.864027 0.481818 -1.697594 18.758488 11.815902 8.465719 31.950365 -0.346338 2.564684 30.722399 1.487269 -28.609999 13.646836 3.238439 -27.087191 25.912247 3.336428 21.954582 3.109426 6.993709 -19.439692 
17.358843 41.182014 69.096031 -1.090632 12.549090 67.408516 -25.113575 -6.969567 -14.524459 0.000000 0.000000 0.000000 -8.288989 -4.807403 -43.659481 -3.521908 18.991840 5.786669 15.312620 19.801411 13.598469 -42.056850 -27.150869 -61.824501 -29.387224 4.338115 32.475033 23.827967 2.886859 -1.360416 -15.070868 -10.263885 8.509561 58.376827 43.257946 -19.210064 33.959873 -5.176394 51.601364 -9.672342 1.113413 -1.665299 18.707083 11.307817 5.955760 31.817251 -0.576091 1.419809 32.560390 1.526834 -29.909794 14.323640 3.630774 -26.713751 25.469465 3.315175 21.631184 2.195861 6.956598 -19.474541 
17.367628 40.882362 69.795990 -0.710022 12.005019 64.539337 -24.993113 -6.679688 -13.413380 0.000000 0.000000 0.000000 -9.550957 -6.774286 -45.790585 -6.290512 20.327188 6.271355 14.465287 19.835674 14.226626 -40.731716 -26.604712 -65.270958 -31.468117 3.482672 31.843185 28.115793 4.075734 -1.095215 -14.016648 -10.413660 9.374660 57.082253 42.573273 -22.591673 34.852150 -4.696483 51.539967 -10.516203 0.870305 -1.680774 19.188097 10.625126 2.091500 30.767485 -0.814174 0.629601 32.855007 2.030670 -35.704807 14.759690 3.902155 -24.519278 24.773582 3.247952 21.387918 0.649813 6.847062 -18.848692 
17.376354 40.582615 70.495934 -0.301954 11.486540 61.660809 -24.878096 -6.393933 -12.304848 0.000000 0.000000 0.000000 -10.740191 -8.784180 -47.897823 -9.061900 21.691544 6.689741 13.624489 19.859867 14.864891 -39.440582 -25.992672 -68.677002 -33.562187 2.653003 31.189434 32.412945 5.251944 -0.740367 -12.968483 -10.546304 10.245707 55.849571 41.850094 -25.919895 35.734814 -4.211103 51.482361 -11.359917 0.625110 -1.699149 19.698988 9.956973 -1.760427 29.687094 -1.050213 -0.144527 33.212650 2.505991 -41.496593 15.198483 4.165597 -22.303999 24.087126 3.190608 21.129152 -0.923340 6.715257 -18.238634 
17.347652 40.227993 71.194023 0.455884 10.814977 58.967133 -24.065319 -5.858445 -10.475534 0.000000 0.000000 0.000000 -12.862822 -11.433951 -50.798172 -11.587374 23.888351 7.524844 13.051739 18.064566 18.657156 -35.168530 -28.031242 -74.399231 -35.260593 2.267949 31.793261 34.136013 5.707498 -0.580251 -13.705337 -10.338467 13.041895 53.229076 44.422432 -30.105961 35.222454 -4.308809 50.710007 -13.279390 0.077217 -1.713901 20.214577 9.394156 -5.642153 27.992670 -1.387740 -1.751764 33.259911 2.848879 -46.336761 15.280403 4.138680 -20.054281 23.591871 3.063435 21.326612 -2.560129 6.631606 -17.775602 
